<svg width="46" height="38" viewBox="0 0 46 38" fill="none" xmlns="http://www.w3.org/2000/svg">
<path fill-rule="evenodd" clip-rule="evenodd" d="M8.21244 26.9802C8.21244 27.3195 8.14561 27.6555 8.01577 27.969C7.88592 28.2825 7.6956 28.5673 7.45568 28.8072C7.21575 29.0472 6.93092 29.2375 6.61744 29.3673C6.30397 29.4972 5.96799 29.564 5.62868 29.564C5.28938 29.564 4.9534 29.4972 4.63992 29.3673C4.32644 29.2375 4.04161 29.0472 3.80169 28.8072C3.56176 28.5673 3.37144 28.2825 3.2416 27.969C3.11175 27.6555 3.04492 27.3195 3.04492 26.9802C3.04492 26.295 3.31714 25.6378 3.80169 25.1532C4.28624 24.6687 4.94343 24.3965 5.62868 24.3965C6.31394 24.3965 6.97113 24.6687 7.45568 25.1532C7.94023 25.6378 8.21244 26.295 8.21244 26.9802ZM42.9787 26.9802C42.9787 27.6655 42.7065 28.3227 42.222 28.8072C41.7374 29.2918 41.0802 29.564 40.395 29.564C39.7097 29.564 39.0525 29.2918 38.568 28.8072C38.0834 28.3227 37.8112 27.6655 37.8112 26.9802C37.8112 26.295 38.0834 25.6378 38.568 25.1532C39.0525 24.6687 39.7097 24.3965 40.395 24.3965C41.0802 24.3965 41.7374 24.6687 42.222 25.1532C42.7065 25.6378 42.9787 26.295 42.9787 26.9802Z" fill="#00A6ED"/>
<path fill-rule="evenodd" clip-rule="evenodd" d="M13.6227 10.2498L18.823 17.2325L8.04639 18.4754L11.5132 10.4788C10.6792 10.1517 10.0905 9.33408 10.0905 8.38561C10.0905 7.14279 11.1044 6.12891 12.3472 6.12891C12.8282 6.13145 13.2958 6.28726 13.6821 6.5737C14.0685 6.86015 14.3535 7.2623 14.4957 7.72176C14.6379 8.18122 14.63 8.67405 14.473 9.12868C14.316 9.5833 14.0181 9.97603 13.6227 10.2498ZM34.489 10.4788L37.9559 18.4754L27.1793 17.2325L32.3795 10.2498C31.7908 9.84102 31.3983 9.1542 31.3983 8.38561C31.3983 7.14279 32.4122 6.12891 33.655 6.12891C34.8979 6.12891 35.9117 7.14279 35.9117 8.38561C35.9117 9.33408 35.323 10.1517 34.489 10.4788Z" fill="#CC9C05"/>
<path d="M45.8883 9.95668C45.8883 8.71386 44.8744 7.69998 43.6316 7.69998C42.3887 7.69998 41.3749 8.71386 41.3749 9.95668C41.3749 10.4146 41.522 10.8561 41.751 11.1995C41.3912 11.1995 41.0314 11.2813 40.688 11.5102L34.2613 15.6638C33.411 16.2035 32.299 16.0073 31.6939 15.1896L24.5477 5.49233C24.4966 5.41441 24.4362 5.34302 24.3678 5.27975C24.9148 4.9786 25.3462 4.50407 25.5939 3.93089C25.8416 3.3577 25.8917 2.71839 25.7362 2.11362C25.5808 1.50885 25.2286 0.972963 24.7351 0.590317C24.2417 0.20767 23.635 0 23.0105 0C22.3861 0 21.7794 0.20767 21.2859 0.590317C20.7925 0.972963 20.4403 1.50885 20.2848 2.11362C20.1294 2.71839 20.1794 3.3577 20.4272 3.93089C20.6749 4.50407 21.1062 4.9786 21.6532 5.27975C21.5878 5.34516 21.5224 5.41057 21.4734 5.49233L14.3271 15.1896C13.7384 16.0073 12.6101 16.2035 11.7597 15.6638L5.33304 11.5102C4.98963 11.2813 4.62986 11.1995 4.2701 11.1995C4.51539 10.8397 4.64622 10.4146 4.64622 9.95668C4.64622 8.71386 3.63234 7.69998 2.38951 7.69998C1.14669 7.69998 0.132812 8.71386 0.132812 9.95668C0.132812 11.1995 1.14669 12.2134 2.38951 12.2134C2.47128 12.2134 2.55304 12.2134 2.61846 12.197C2.40587 12.5731 2.3241 13.0147 2.42222 13.4889L6.67398 34.6986C6.98468 36.2195 8.32562 37.3151 9.87915 37.3151H36.1419C37.6955 37.3151 39.0364 36.2195 39.3471 34.6986L43.5989 13.4889C43.697 13.0147 43.5989 12.5568 43.4026 12.197C43.4844 12.197 43.5662 12.2134 43.6316 12.2134C44.8744 12.2134 45.8883 11.1995 45.8883 9.95668Z" fill="#FCC000"/>
<path d="M23.0111 31.0651C24.0953 31.0651 25.1352 30.6344 25.9019 29.8677C26.6686 29.101 27.0993 28.0612 27.0993 26.9769C27.0993 25.8926 26.6686 24.8528 25.9019 24.0861C25.1352 23.3194 24.0953 22.8887 23.0111 22.8887C21.9268 22.8887 20.887 23.3194 20.1203 24.0861C19.3536 24.8528 18.9229 25.8926 18.9229 26.9769C18.9229 28.0612 19.3536 29.101 20.1203 29.8677C20.887 30.6344 21.9268 31.0651 23.0111 31.0651Z" fill="#00A6ED"/>
<path fill-rule="evenodd" clip-rule="evenodd" d="M14.8497 26.9822C14.8497 27.6328 14.5913 28.2567 14.1313 28.7167C13.6713 29.1767 13.0473 29.4352 12.3968 29.4352C11.7462 29.4352 11.1223 29.1767 10.6623 28.7167C10.2023 28.2567 9.94385 27.6328 9.94385 26.9822C9.94385 26.3317 10.2023 25.7078 10.6623 25.2477C11.1223 24.7877 11.7462 24.5293 12.3968 24.5293C13.0473 24.5293 13.6713 24.7877 14.1313 25.2477C14.5913 25.7078 14.8497 26.3317 14.8497 26.9822ZM36.1085 26.9822C36.1085 27.6328 35.8501 28.2567 35.3901 28.7167C34.93 29.1767 34.3061 29.4352 33.6556 29.4352C33.005 29.4352 32.3811 29.1767 31.9211 28.7167C31.4611 28.2567 31.2026 27.6328 31.2026 26.9822C31.2026 26.3317 31.4611 25.7078 31.9211 25.2477C32.3811 24.7877 33.005 24.5293 33.6556 24.5293C34.3061 24.5293 34.93 24.7877 35.3901 25.2477C35.8501 25.7078 36.1085 26.3317 36.1085 26.9822Z" fill="#F8312F"/>
</svg>
