<svg width="169" height="166" viewBox="0 0 169 166" fill="none" xmlns="http://www.w3.org/2000/svg">
<circle cx="84.6162" cy="83.4205" r="48.1487" stroke="#EFEFEF" stroke-opacity="0.7" stroke-width="0.420513"/>
<circle cx="84.1965" cy="83" r="63.7077" stroke="#EFEFEF" stroke-opacity="0.7" stroke-width="0.420513"/>
<path d="M84.617 165.21C130.714 165.21 168.089 128.406 168.089 83C168.089 37.5935 130.714 0.789744 84.617 0.789744C38.5198 0.789744 1.14521 37.5935 1.14521 83C1.14521 128.406 38.5198 165.21 84.617 165.21Z" stroke="url(#paint0_linear_1_3)" stroke-opacity="0.7" stroke-width="0.420513"/>
<circle cx="29.9504" cy="93.5128" r="1.68205" fill="#67CE67"/>
<circle cx="103.12" cy="34.641" r="1.68205" fill="#67CE67"/>
<circle cx="156.104" cy="96.8769" r="1.68205" fill="#67CE67"/>
<circle cx="141.806" cy="76.6923" r="2.52308" fill="#2563EB"/>
<circle cx="82.0933" cy="35.482" r="2.52308" fill="#2563EB"/>
<circle cx="51.8167" cy="40.5282" r="1.68205" fill="#67CE67"/>
<circle cx="121.622" cy="55.6667" r="0.841026" fill="#FF0000"/>
<circle cx="30.7912" cy="67.441" r="0.841026" fill="#FF0000"/>
<circle cx="62.7502" cy="131.359" r="0.841026" fill="#FF0000"/>
<circle cx="145.171" cy="119.585" r="0.841026" fill="#FF0000"/>
<circle cx="34.1545" cy="112.857" r="0.841026" fill="#FF0000"/>
<defs>
<linearGradient id="paint0_linear_1_3" x1="84.617" y1="1" x2="84.617" y2="165" gradientUnits="userSpaceOnUse">
<stop stop-color="#EFEFEF" stop-opacity="0"/>
<stop offset="1" stop-color="#EFEFEF"/>
</linearGradient>
</defs>
</svg>
