<svg width="20" height="20" viewBox="0 0 20 20" fill="none" xmlns="http://www.w3.org/2000/svg">
<path fill-rule="evenodd" clip-rule="evenodd" d="M3.879 0.879C3 1.757 3 3.172 3 6V14C3 16.828 3 18.243 3.879 19.121C4.757 20 6.172 20 9 20H11C13.828 20 15.243 20 16.121 19.121C17 18.243 17 16.828 17 14V6C17 3.172 17 1.757 16.121 0.879C15.243 -5.96046e-08 13.828 0 11 0H9C6.172 0 4.757 -5.96046e-08 3.879 0.879ZM6.25 15C6.25 14.8011 6.32902 14.6103 6.46967 14.4697C6.61032 14.329 6.80109 14.25 7 14.25H10C10.1989 14.25 10.3897 14.329 10.5303 14.4697C10.671 14.6103 10.75 14.8011 10.75 15C10.75 15.1989 10.671 15.3897 10.5303 15.5303C10.3897 15.671 10.1989 15.75 10 15.75H7C6.80109 15.75 6.61032 15.671 6.46967 15.5303C6.32902 15.3897 6.25 15.1989 6.25 15ZM7 10.25C6.80109 10.25 6.61032 10.329 6.46967 10.4697C6.32902 10.6103 6.25 10.8011 6.25 11C6.25 11.1989 6.32902 11.3897 6.46967 11.5303C6.61032 11.671 6.80109 11.75 7 11.75H13C13.1989 11.75 13.3897 11.671 13.5303 11.5303C13.671 11.3897 13.75 11.1989 13.75 11C13.75 10.8011 13.671 10.6103 13.5303 10.4697C13.3897 10.329 13.1989 10.25 13 10.25H7ZM6.25 7C6.25 6.80109 6.32902 6.61032 6.46967 6.46967C6.61032 6.32902 6.80109 6.25 7 6.25H13C13.1989 6.25 13.3897 6.32902 13.5303 6.46967C13.671 6.61032 13.75 6.80109 13.75 7C13.75 7.19891 13.671 7.38968 13.5303 7.53033C13.3897 7.67098 13.1989 7.75 13 7.75H7C6.80109 7.75 6.61032 7.67098 6.46967 7.53033C6.32902 7.38968 6.25 7.19891 6.25 7Z" fill="#FCC000"/>
<path d="M0 10V14C0 16.829 -5.96046e-08 18.243 0.879 19.122C1.096 19.339 1.346 19.502 1.642 19.626L1.623 19.492C1.5 18.574 1.5 17.429 1.5 16.099V7.902C1.5 6.572 1.5 5.426 1.623 4.509L1.643 4.375C1.35714 4.49012 1.09733 4.66151 0.879 4.879C-5.96046e-08 5.758 0 7.172 0 10ZM20 10V14C20 16.829 20 18.243 19.121 19.122C18.904 19.339 18.654 19.502 18.358 19.626L18.377 19.492C18.5 18.574 18.5 17.429 18.5 16.099V7.902C18.5 6.572 18.5 5.426 18.377 4.509L18.357 4.375C18.654 4.498 18.904 4.662 19.121 4.879C20 5.758 20 7.172 20 10Z" fill="#FCC000"/>
</svg>
