<svg width="13" height="14" viewBox="0 0 13 14" fill="none" xmlns="http://www.w3.org/2000/svg">
<path d="M6.72976 0C5.51125 0.000232865 4.31566 0.34445 3.27052 0.995934C2.22538 1.64742 1.36989 2.58173 0.795311 3.69921C0.220734 4.81668 -0.0513795 6.07541 0.00799784 7.34111C0.0673752 8.6068 0.456016 9.832 1.13246 10.886C1.80891 11.94 2.74779 12.7833 3.84895 13.3259C4.95011 13.8685 6.17224 14.09 7.38499 13.9669C8.59773 13.8438 9.75559 13.3806 10.7351 12.6268C11.7145 11.8729 12.4788 10.8568 12.9465 9.6866C13.176 9.1126 12.6261 8.5358 12.0728 8.7696C11.1245 9.16907 10.0716 9.21029 9.09716 8.8861C8.12268 8.5619 7.28828 7.8928 6.73901 6.99511C6.18975 6.09743 5.96037 5.02794 6.09075 3.97261C6.22113 2.91727 6.70304 1.94283 7.45267 1.2187L7.5045 1.1627C7.87538 0.7217 7.58056 0.00560001 6.99429 0.00560001H6.81524L6.76947 0.00139998L6.72976 0Z" fill="black"/>
</svg>
