<svg width="18" height="18" viewBox="0 0 18 18" fill="none" xmlns="http://www.w3.org/2000/svg">
<path d="M12.6561 6.18736C13.1221 6.18736 13.4998 5.8096 13.4998 5.34361C13.4998 4.87762 13.1221 4.49986 12.6561 4.49986C12.1901 4.49986 11.8123 4.87762 11.8123 5.34361C11.8123 5.8096 12.1901 6.18736 12.6561 6.18736Z" fill="white"/>
<path d="M6.55075 8.63654L6.90431 8.99009C7.04584 8.84856 7.08932 8.63626 7.01484 8.45048L6.55075 8.63654ZM9.36331 11.4491L9.54938 10.985C9.3636 10.9105 9.15131 10.954 9.00977 11.0955L9.36331 11.4491ZM8.4375 12.3749V12.8749C8.5701 12.8749 8.69727 12.8222 8.79104 12.7284L8.4375 12.3749ZM6.75 12.3749V11.8749C6.47386 11.8749 6.25 12.0987 6.25 12.3749H6.75ZM6.75 14.0624V14.5624C7.02614 14.5624 7.25 14.3385 7.25 14.0624H6.75ZM5.0625 14.0624V13.5624C4.78636 13.5624 4.5625 13.7862 4.5625 14.0624H5.0625ZM5.0625 15.7499V16.2499C5.33864 16.2499 5.5625 16.026 5.5625 15.7499H5.0625ZM2.25 15.7499H1.75C1.75 16.026 1.97386 16.2499 2.25 16.2499V15.7499ZM2.25 12.9374L1.89644 12.5838C1.80268 12.6776 1.75 12.8048 1.75 12.9374H2.25ZM7.01484 8.45048C6.62409 7.47583 6.58184 6.39615 6.89524 5.39394L5.94082 5.09548C5.55866 6.31757 5.61018 7.63412 6.08666 8.8226L7.01484 8.45048ZM6.89524 5.39394C7.20864 4.39174 7.85847 3.52848 8.73488 2.95008L8.18406 2.11546C7.11537 2.82075 6.32298 3.8734 5.94082 5.09548L6.89524 5.39394ZM8.73488 2.95008C9.61129 2.37169 10.6605 2.11363 11.7052 2.21954L11.8061 1.22464C10.5322 1.0955 9.25275 1.41017 8.18406 2.11546L8.73488 2.95008ZM11.7052 2.21954C12.7499 2.32544 13.726 2.78881 14.4686 3.53132L15.1757 2.82421C14.2703 1.9188 13.08 1.35378 11.8061 1.22464L11.7052 2.21954ZM14.4686 3.53132C15.2111 4.27383 15.6744 5.24993 15.7803 6.29464L16.7752 6.19379C16.6461 4.91988 16.0811 3.72962 15.1757 2.82421L14.4686 3.53132ZM15.7803 6.29464C15.8862 7.33935 15.6282 8.38859 15.0498 9.26499L15.8844 9.81582C16.5897 8.74713 16.9044 7.4677 16.7752 6.19379L15.7803 6.29464ZM15.0498 9.26499C14.4714 10.1414 13.6081 10.7912 12.6059 11.1046L12.9044 12.059C14.1264 11.6769 15.1791 10.8845 15.8844 9.81582L15.0498 9.26499ZM12.6059 11.1046C11.6037 11.418 10.524 11.3758 9.54938 10.985L9.17725 11.9132C10.3657 12.3897 11.6823 12.4412 12.9044 12.059L12.6059 11.1046ZM9.00977 11.0955L8.08396 12.0213L8.79104 12.7284L9.71685 11.8027L9.00977 11.0955ZM8.4375 11.8749H6.75V12.8749H8.4375V11.8749ZM6.25 12.3749V14.0624H7.25V12.3749H6.25ZM6.75 13.5624H5.0625V14.5624H6.75V13.5624ZM4.5625 14.0624V15.7499H5.5625V14.0624H4.5625ZM5.0625 15.2499H2.25V16.2499H5.0625V15.2499ZM2.75 15.7499V12.9374H1.75V15.7499H2.75ZM2.60356 13.2909L6.90431 8.99009L6.19719 8.28299L1.89644 12.5838L2.60356 13.2909ZM12.4373 5.34361C12.4373 5.2228 12.5353 5.12486 12.6561 5.12486V6.12486C13.0876 6.12486 13.4373 5.77508 13.4373 5.34361H12.4373ZM12.6561 5.12486C12.7769 5.12486 12.8748 5.2228 12.8748 5.34361H11.8748C11.8748 5.77508 12.2246 6.12486 12.6561 6.12486V5.12486ZM12.8748 5.34361C12.8748 5.46442 12.7769 5.56236 12.6561 5.56236V4.56236C12.2246 4.56236 11.8748 4.91214 11.8748 5.34361H12.8748ZM12.6561 5.56236C12.5353 5.56236 12.4373 5.46442 12.4373 5.34361H13.4373C13.4373 4.91214 13.0876 4.56236 12.6561 4.56236V5.56236ZM12.9998 5.34361C12.9998 5.53346 12.8459 5.68736 12.6561 5.68736V6.68736C13.3982 6.68736 13.9998 6.08574 13.9998 5.34361H12.9998ZM12.6561 5.68736C12.4662 5.68736 12.3123 5.53346 12.3123 5.34361H11.3123C11.3123 6.08574 11.9139 6.68736 12.6561 6.68736V5.68736ZM12.3123 5.34361C12.3123 5.15376 12.4662 4.99986 12.6561 4.99986V3.99986C11.9139 3.99986 11.3123 4.60148 11.3123 5.34361H12.3123ZM12.6561 4.99986C12.8459 4.99986 12.9998 5.15376 12.9998 5.34361H13.9998C13.9998 4.60148 13.3982 3.99986 12.6561 3.99986V4.99986Z" fill="#A4A4A4"/>
</svg>
