<svg width="20" height="21" viewBox="0 0 20 21" fill="none" xmlns="http://www.w3.org/2000/svg">
<path fill-rule="evenodd" clip-rule="evenodd" d="M0 10V6C0 3.172 -5.96046e-08 1.757 0.879 0.879C1.757 -5.96046e-08 3.172 0 6 0H14C16.828 0 18.243 -5.96046e-08 19.121 0.879C20 1.757 20 3.172 20 6V10C20 12.828 20 14.243 19.121 15.121C18.475 15.768 17.539 15.939 15.963 15.984C15.96 15.2262 15.6882 14.4941 15.196 13.918C15.1664 13.8847 15.1488 13.8425 15.146 13.798C15.0854 13.0373 14.7558 12.3231 14.2163 11.7834C13.6768 11.2437 12.9627 10.9138 12.202 10.853C12.1575 10.8502 12.1153 10.8326 12.082 10.803C11.5012 10.3081 10.7631 10.0362 10 10.0362C9.23692 10.0362 8.4988 10.3081 7.918 10.803C7.88468 10.8326 7.84245 10.8502 7.798 10.853C7.03714 10.9136 6.32277 11.2433 5.78305 11.7831C5.24334 12.3228 4.9136 13.0371 4.853 13.798C4.85016 13.8425 4.83256 13.8847 4.803 13.918C4.31114 14.4943 4.03971 15.2264 4.037 15.984C2.461 15.939 1.525 15.768 0.879 15.121C-5.96046e-08 14.243 0 12.828 0 10ZM6.25 4C6.25 3.80109 6.32902 3.61032 6.46967 3.46967C6.61032 3.32902 6.80109 3.25 7 3.25H13C13.1989 3.25 13.3897 3.32902 13.5303 3.46967C13.671 3.61032 13.75 3.80109 13.75 4C13.75 4.19891 13.671 4.38968 13.5303 4.53033C13.3897 4.67098 13.1989 4.75 13 4.75H7C6.80109 4.75 6.61032 4.67098 6.46967 4.53033C6.32902 4.38968 6.25 4.19891 6.25 4ZM5 6.75C4.80109 6.75 4.61032 6.82902 4.46967 6.96967C4.32902 7.11032 4.25 7.30109 4.25 7.5C4.25 7.69891 4.32902 7.88968 4.46967 8.03033C4.61032 8.17098 4.80109 8.25 5 8.25H15C15.1989 8.25 15.3897 8.17098 15.5303 8.03033C15.671 7.88968 15.75 7.69891 15.75 7.5C15.75 7.30109 15.671 7.11032 15.5303 6.96967C15.3897 6.82902 15.1989 6.75 15 6.75H5Z" fill="#FCC000"/>
<path fill-rule="evenodd" clip-rule="evenodd" d="M11.11 11.9454C10.8005 11.6812 10.4069 11.5361 10 11.5361C9.59309 11.5361 9.19953 11.6812 8.89 11.9454C8.6165 12.1793 8.27581 12.3204 7.917 12.3484C7.51147 12.3806 7.13073 12.5564 6.84316 12.8442C6.55558 13.132 6.38002 13.5128 6.348 13.9184C6.32 14.2764 6.178 14.6164 5.945 14.8914C5.6814 15.2007 5.53662 15.5939 5.53662 16.0004C5.53662 16.4068 5.6814 16.8 5.945 17.1094C6.179 17.3834 6.32 17.7244 6.348 18.0824C6.38005 18.4881 6.55576 18.8691 6.84353 19.1568C7.13131 19.4446 7.51229 19.6203 7.918 19.6524C8.276 19.6804 8.617 19.8214 8.891 20.0544C9.20038 20.318 9.59355 20.4627 10 20.4627C10.4065 20.4627 10.7996 20.318 11.109 20.0544C11.3825 19.8204 11.7232 19.6793 12.082 19.6514C12.4876 19.6193 12.8684 19.4438 13.1562 19.1562C13.4439 18.8686 13.6197 18.4879 13.652 18.0824C13.6797 17.7237 13.8204 17.383 14.054 17.1094C14.3179 16.7999 14.4628 16.4065 14.4628 15.9999C14.4628 15.5932 14.3179 15.1998 14.054 14.8904C13.8201 14.6169 13.679 14.2762 13.651 13.9174C13.6187 13.512 13.4431 13.1314 13.1555 12.8438C12.868 12.5563 12.4874 12.3806 12.082 12.3484C11.7232 12.3204 11.3835 12.1793 11.11 11.9454ZM12.011 15.5484C12.0841 15.4814 12.1431 15.4006 12.1848 15.3107C12.2264 15.2208 12.2499 15.1235 12.2537 15.0245C12.2575 14.9255 12.2417 14.8267 12.2072 14.7338C12.1726 14.6409 12.1199 14.5558 12.0523 14.4834C11.9846 14.411 11.9033 14.3527 11.813 14.3119C11.7227 14.2711 11.6252 14.2486 11.5261 14.2458C11.4271 14.2429 11.3284 14.2596 11.2359 14.2951C11.1433 14.3306 11.0588 14.384 10.987 14.4524L9.357 15.9744L9.011 15.6524C8.86528 15.5188 8.67272 15.4482 8.47521 15.4558C8.27769 15.4635 8.09119 15.5488 7.95624 15.6933C7.8213 15.8377 7.74883 16.0296 7.75459 16.2271C7.76035 16.4247 7.84387 16.612 7.987 16.7484L8.844 17.5484C8.98291 17.6781 9.16591 17.7503 9.356 17.7503C9.54609 17.7503 9.72909 17.6781 9.868 17.5484L12.011 15.5484Z" fill="#FCC000"/>
</svg>
