<svg width="16" height="13" viewBox="0 0 16 13" fill="none" xmlns="http://www.w3.org/2000/svg">
<path d="M1.8925 8.9072C1.2975 8.1344 1 7.7473 1 6.6C1 5.452 1.2975 5.0663 1.8925 4.2928C3.0804 2.75 5.0726 1 8 1C10.9274 1 12.9196 2.75 14.1075 4.2928C14.7025 5.067 15 5.4527 15 6.6C15 7.748 14.7025 8.1337 14.1075 8.9072C12.9196 10.45 10.9274 12.2 8 12.2C5.0726 12.2 3.0804 10.45 1.8925 8.9072Z" stroke="#A4A4A4"/>
<path d="M10.1004 6.6C10.1004 7.15695 9.87914 7.6911 9.48532 8.08492C9.09149 8.47875 8.55735 8.7 8.00039 8.7C7.44344 8.7 6.90929 8.47875 6.51547 8.08492C6.12164 7.6911 5.90039 7.15695 5.90039 6.6C5.90039 6.04305 6.12164 5.5089 6.51547 5.11508C6.90929 4.72125 7.44344 4.5 8.00039 4.5C8.55735 4.5 9.09149 4.72125 9.48532 5.11508C9.87914 5.5089 10.1004 6.04305 10.1004 6.6Z" stroke="#A4A4A4"/>
</svg>
