<svg width="13" height="12" viewBox="0 0 13 12" fill="none" xmlns="http://www.w3.org/2000/svg">
<path fill-rule="evenodd" clip-rule="evenodd" d="M0 12V2.66667C0 1.40933 -4.07821e-08 0.781333 0.400947 0.390667C0.801895 -3.97364e-08 1.44642 0 2.73684 0H9.57895C10.1482 0 10.5902 -3.35276e-08 10.9501 0.018C10.1968 0.0993928 9.50086 0.44862 8.99538 0.998825C8.48991 1.54903 8.21046 2.26156 8.21053 3V5.33333L8.14279 11.978L6.1579 11.3333L4.10526 12L2.05263 11.3333L0 12ZM13 5.33333H9.57895V3C9.57895 2.55797 9.75916 2.13405 10.0799 1.82149C10.4007 1.50893 10.8358 1.33333 11.2895 1.33333C11.7431 1.33333 12.1782 1.50893 12.499 1.82149C12.8198 2.13405 13 2.55797 13 3V5.33333ZM1.36842 2.66667C1.36842 2.48986 1.44051 2.32029 1.56882 2.19526C1.69714 2.07024 1.87117 2 2.05263 2H6.1579C6.33936 2 6.51339 2.07024 6.6417 2.19526C6.77002 2.32029 6.84211 2.48986 6.84211 2.66667C6.84211 2.84348 6.77002 3.01305 6.6417 3.13807C6.51339 3.2631 6.33936 3.33333 6.1579 3.33333H2.05263C1.87117 3.33333 1.69714 3.2631 1.56882 3.13807C1.44051 3.01305 1.36842 2.84348 1.36842 2.66667ZM1.36842 5.33333C1.36842 5.15652 1.44051 4.98695 1.56882 4.86193C1.69714 4.7369 1.87117 4.66667 2.05263 4.66667H3.42105C3.60252 4.66667 3.77655 4.7369 3.90486 4.86193C4.03318 4.98695 4.10526 5.15652 4.10526 5.33333C4.10526 5.51014 4.03318 5.67971 3.90486 5.80474C3.77655 5.92976 3.60252 6 3.42105 6H2.05263C1.87117 6 1.69714 5.92976 1.56882 5.80474C1.44051 5.67971 1.36842 5.51014 1.36842 5.33333ZM1.36842 8C1.36842 7.82319 1.44051 7.65362 1.56882 7.5286C1.69714 7.40357 1.87117 7.33333 2.05263 7.33333H4.78947C4.97094 7.33333 5.14497 7.40357 5.27328 7.5286C5.4016 7.65362 5.47368 7.82319 5.47368 8C5.47368 8.17681 5.4016 8.34638 5.27328 8.47141C5.14497 8.59643 4.97094 8.66667 4.78947 8.66667H2.05263C1.87117 8.66667 1.69714 8.59643 1.56882 8.47141C1.44051 8.34638 1.36842 8.17681 1.36842 8Z" fill="#EC7826"/>
</svg>
