<svg width="11" height="12" viewBox="0 0 11 12" fill="none" xmlns="http://www.w3.org/2000/svg">
<path d="M4.46809 3.06559L8.43213 7.03019L4.41034 11.0525C4.22418 11.2387 3.97846 11.3534 3.71622 11.3766L3.61754 11.3805H0.683478C0.543967 11.3805 0.409364 11.329 0.305481 11.2359C0.201598 11.1428 0.135746 11.0146 0.120552 10.8759L0.117188 10.8142V7.88019C0.117252 7.61692 0.209944 7.36206 0.379027 7.16027L0.446309 7.08738L4.46809 3.06559ZM6.22864 1.30505C6.42707 1.10659 6.6927 0.989759 6.97308 0.977614C7.25346 0.965469 7.5282 1.0589 7.74305 1.23945L7.81425 1.30505L10.1932 3.68403C10.3915 3.88243 10.5083 4.14795 10.5204 4.42819C10.5326 4.70844 10.4392 4.98306 10.2588 5.19787L10.1932 5.26964L9.2255 6.23738L5.26146 2.27279L6.22864 1.30505Z" fill="#FCC000"/>
</svg>
