<svg width="28" height="28" viewBox="0 0 28 28" fill="none" xmlns="http://www.w3.org/2000/svg">
<path d="M13.9997 25.6663C20.443 25.6663 25.6663 20.443 25.6663 13.9997C25.6663 7.55635 20.443 2.33301 13.9997 2.33301C7.55635 2.33301 2.33301 7.55635 2.33301 13.9997C2.33301 20.443 7.55635 25.6663 13.9997 25.6663Z" stroke="#EC2326" stroke-width="2" stroke-linecap="round" stroke-linejoin="round"/>
<path d="M10.9117 9.81561L13.9997 12.9036L17.0717 9.83161C17.1396 9.75938 17.2213 9.70161 17.3121 9.66174C17.4028 9.62187 17.5006 9.60074 17.5997 9.59961C17.8119 9.59961 18.0154 9.68389 18.1654 9.83392C18.3155 9.98395 18.3997 10.1874 18.3997 10.3996C18.4016 10.4977 18.3834 10.5951 18.3463 10.6859C18.3091 10.7767 18.2538 10.859 18.1837 10.9276L15.0717 13.9996L18.1837 17.1116C18.3156 17.2406 18.3929 17.4153 18.3997 17.5996C18.3997 17.8118 18.3155 18.0153 18.1654 18.1653C18.0154 18.3153 17.8119 18.3996 17.5997 18.3996C17.4978 18.4038 17.3961 18.3868 17.301 18.3496C17.206 18.3125 17.1197 18.2559 17.0477 18.1836L13.9997 15.0956L10.9197 18.1756C10.8521 18.2454 10.7714 18.3012 10.6821 18.3396C10.5929 18.3781 10.4969 18.3985 10.3997 18.3996C10.1876 18.3996 9.98408 18.3153 9.83405 18.1653C9.68402 18.0153 9.59974 17.8118 9.59974 17.5996C9.59787 17.5015 9.61607 17.4041 9.65322 17.3133C9.69036 17.2225 9.74567 17.1403 9.81574 17.0716L12.9277 13.9996L9.81574 10.8876C9.68389 10.7586 9.60657 10.5839 9.59974 10.3996C9.59974 10.1874 9.68402 9.98395 9.83405 9.83392C9.98408 9.68389 10.1876 9.59961 10.3997 9.59961C10.5917 9.60201 10.7757 9.67961 10.9117 9.81561Z" fill="#EC2326"/>
</svg>
