<svg width="13" height="14" viewBox="0 0 13 14" fill="none" xmlns="http://www.w3.org/2000/svg">
<path d="M8.55803 12.5247C8.40778 12.9561 8.12916 13.3296 7.76056 13.5939C7.39196 13.8581 6.95154 14 6.5 14C6.04846 14 5.60804 13.8581 5.23944 13.5939C4.87084 13.3296 4.59222 12.9561 4.44197 12.5247H8.55803ZM6.5 1.7277e-06C7.85009 1.7277e-06 9.14489 0.543351 10.0995 1.51052C11.0542 2.47769 11.5905 3.78945 11.5905 5.15723V7.75647C11.5907 7.87082 11.617 7.98357 11.6676 8.0858L12.9155 10.6151C12.9765 10.7386 13.0053 10.8759 12.9992 11.0139C12.9931 11.152 12.9522 11.2861 12.8805 11.4036C12.8088 11.5211 12.7087 11.6181 12.5895 11.6854C12.4704 11.7527 12.3363 11.788 12.1999 11.788H11.8916L12.6705 12.577C12.8029 12.716 12.8762 12.9021 12.8746 13.0952C12.8729 13.2884 12.7964 13.4732 12.6616 13.6098C12.5268 13.7464 12.3444 13.8239 12.1537 13.8256C11.963 13.8272 11.7793 13.753 11.6422 13.6188L0.329549 2.15867C0.260092 2.09071 0.204691 2.00941 0.166578 1.91953C0.128465 1.82964 0.108404 1.73296 0.107565 1.63514C0.106726 1.53731 0.125125 1.4403 0.161691 1.34976C0.198256 1.25921 0.252254 1.17695 0.320535 1.10778C0.388815 1.0386 0.470011 0.983897 0.559383 0.946853C0.648756 0.909809 0.744516 0.891168 0.841075 0.892018C0.937635 0.892868 1.03306 0.913192 1.12178 0.951804C1.21051 0.990416 1.29075 1.04654 1.35784 1.11691L2.37012 2.14246C2.84135 1.47884 3.46176 0.938398 4.18003 0.565846C4.8983 0.193294 5.6938 -0.000667848 6.50073 1.7277e-06M1.42619 4.73507L8.38786 11.788H0.800059C0.66369 11.788 0.529578 11.7527 0.410464 11.6854C0.291349 11.6181 0.191186 11.5211 0.119488 11.4036C0.0477892 11.2861 0.006936 11.152 0.00080815 11.0139C-0.0053197 10.8759 0.0234813 10.7386 0.0844758 10.6151L1.33311 8.0858C1.38343 7.98351 1.40957 7.87076 1.40947 7.75647V5.15723C1.40947 5.01479 1.41504 4.87407 1.42619 4.73507Z" fill="#67CE67"/>
</svg>
