<svg width="24" height="24" viewBox="0 0 24 24" fill="none" xmlns="http://www.w3.org/2000/svg">
<path fill-rule="evenodd" clip-rule="evenodd" d="M11.9949 0.000858268C10.8309 -0.0154221 9.67527 0.200058 8.59518 0.634779C7.51509 1.0695 6.53205 1.71479 5.70318 2.53317C4.87431 3.35154 4.21614 4.32667 3.76691 5.40191C3.31768 6.47715 3.08634 7.63105 3.08634 8.79657C3.08634 9.9621 3.31768 11.116 3.76691 12.1912C4.21614 13.2665 4.87431 14.2416 5.70318 15.06C6.53205 15.8784 7.51509 16.5236 8.59518 16.9584C9.67527 17.3931 10.8309 17.6086 11.9949 17.5923C14.325 17.5923 16.5597 16.6655 18.2074 15.0158C19.855 13.3662 20.7807 11.1287 20.7807 8.79572C20.7807 6.46272 19.855 4.22528 18.2074 2.5756C16.5597 0.925921 14.325 0.000858268 11.9949 0.000858268ZM12.3429 4.15971L13.5137 6.51805C13.5392 6.57796 13.5803 6.62987 13.6328 6.66825C13.6853 6.70663 13.7473 6.73005 13.812 6.73603L16.4109 7.1308C16.4853 7.14033 16.5555 7.17092 16.6131 7.21897C16.6708 7.26703 16.7136 7.33056 16.7364 7.40211C16.7593 7.47365 16.7613 7.55025 16.7422 7.62289C16.7231 7.69553 16.6837 7.76121 16.6286 7.81222L14.712 9.63847C14.6832 9.69293 14.6681 9.75363 14.6681 9.81526C14.6681 9.87689 14.6832 9.93759 14.712 9.99205L15.0789 12.5804C15.0943 12.6549 15.0879 12.7323 15.0604 12.8033C15.0329 12.8743 14.9855 12.9358 14.9239 12.9804C14.8623 13.025 14.7892 13.0508 14.7133 13.0548C14.6373 13.0587 14.5619 13.0406 14.496 13.0026L12.1817 11.7771C12.1217 11.7499 12.0565 11.7357 11.9906 11.7357C11.9246 11.7357 11.8595 11.7499 11.7994 11.7771L9.48512 13.0026C9.41924 13.0406 9.3438 13.0587 9.26788 13.0548C9.19196 13.0508 9.1188 13.025 9.05721 12.9804C8.99562 12.9358 8.94822 12.8743 8.92073 12.8033C8.89324 12.7323 8.88682 12.6549 8.90226 12.5804L9.33597 9.99205C9.35486 9.93206 9.35848 9.86829 9.34651 9.80655C9.33453 9.7448 9.30734 9.68703 9.2674 9.63847L7.3491 7.79849C7.29758 7.74698 7.2613 7.68219 7.2443 7.61131C7.2273 7.54042 7.23024 7.46621 7.25278 7.39689C7.27533 7.32757 7.3166 7.26586 7.37203 7.21859C7.42746 7.17132 7.49488 7.14034 7.56682 7.12909L10.1674 6.74976C10.2322 6.74378 10.2941 6.72036 10.3466 6.68198C10.3991 6.6436 10.4403 6.5917 10.4657 6.53178L11.6366 4.17344C11.6677 4.1065 11.717 4.04966 11.7789 4.00937C11.8407 3.96909 11.9125 3.94697 11.9863 3.94554C12.06 3.94411 12.1327 3.96342 12.196 4.00128C12.2594 4.03914 12.3108 4.09403 12.3446 4.15971H12.3429ZM21.0858 14.8666C19.6066 17.0817 17.3737 18.683 14.8029 19.3722L17.2235 23.5705C17.3082 23.7175 17.4345 23.8361 17.5865 23.9113C17.7384 23.9864 17.9093 24.0148 18.0773 23.9927C18.2454 23.9707 18.4032 23.8992 18.5307 23.7874C18.6582 23.6756 18.7498 23.5285 18.7938 23.3646L19.6681 20.1051L22.9218 20.9788C23.0855 21.0225 23.2585 21.0167 23.4189 20.962C23.5793 20.9074 23.72 20.8064 23.8231 20.6718C23.9262 20.5371 23.9871 20.3749 23.9982 20.2056C24.0092 20.0363 23.9699 19.8676 23.8853 19.7206L21.0858 14.8666ZM9.1954 19.3739C6.62306 18.6901 4.38803 17.0906 2.90906 14.8752L0.114748 19.7206C0.0300577 19.8676 -0.0092362 20.0363 0.00183059 20.2056C0.0128974 20.3749 0.0738283 20.5371 0.176926 20.6718C0.280023 20.8064 0.420662 20.9074 0.581074 20.962C0.741486 21.0167 0.914474 21.0225 1.07819 20.9788L4.33364 20.1051L5.20622 23.3646C5.25022 23.5285 5.34177 23.6756 5.46929 23.7874C5.59681 23.8992 5.75458 23.9707 5.92266 23.9927C6.09073 24.0148 6.26156 23.9864 6.41354 23.9113C6.56552 23.8361 6.69184 23.7175 6.77652 23.5705L9.1954 19.3739Z" fill="#FCC000"/>
</svg>
