<svg width="13" height="14" viewBox="0 0 13 14" fill="none" xmlns="http://www.w3.org/2000/svg">
<path fill-rule="evenodd" clip-rule="evenodd" d="M2.05265 0C1.50826 0 0.986156 0.221249 0.601209 0.615076C0.216261 1.0089 0 1.54305 0 2.1V11.9C0 12.457 0.216261 12.9911 0.601209 13.3849C0.986156 13.7788 1.50826 14 2.05265 14H6.15796C6.70236 14 7.22446 13.7788 7.60941 13.3849C7.99436 12.9911 8.21062 12.457 8.21062 11.9V2.1C8.21062 1.54305 7.99436 1.0089 7.60941 0.615076C7.22446 0.221249 6.70236 0 6.15796 0H2.05265ZM9.09531 3.7051C9.22362 3.57387 9.39762 3.50015 9.57905 3.50015C9.76049 3.50015 9.93449 3.57387 10.0628 3.7051L12.7997 6.5051C12.9279 6.63637 13 6.81438 13 7C13 7.18561 12.9279 7.36363 12.7997 7.4949L10.0628 10.2949C9.93375 10.4224 9.76092 10.493 9.58152 10.4914C9.40212 10.4898 9.23051 10.4162 9.10365 10.2864C8.97679 10.1566 8.90483 9.98102 8.90327 9.79748C8.90171 9.61394 8.97068 9.43712 9.09531 9.3051L10.6642 7.7H4.78953C4.60806 7.7 4.43403 7.62625 4.30571 7.49497C4.1774 7.3637 4.10531 7.18565 4.10531 7C4.10531 6.81435 4.1774 6.6363 4.30571 6.50503C4.43403 6.37375 4.60806 6.3 4.78953 6.3H10.6642L9.09531 4.6949C8.96704 4.56363 8.89498 4.38561 8.89498 4.2C8.89498 4.01439 8.96704 3.83637 9.09531 3.7051Z" fill="#FFDD67"/>
</svg>
