<svg width="24" height="24" viewBox="0 0 24 24" fill="none" xmlns="http://www.w3.org/2000/svg">
<path d="M8.07597 0.65791C5.64978 1.49957 3.55745 3.09708 2.10629 5.21578C0.655132 7.33448 -0.0783597 9.8627 0.0135545 12.4291C0.105469 14.9955 1.01794 17.4647 2.61695 19.4742C4.21596 21.4837 6.41721 22.9274 8.89739 23.5933C10.9081 24.1122 13.0148 24.135 15.0363 23.6597C16.8675 23.2484 18.5606 22.3685 19.9496 21.1063C21.3954 19.7524 22.4447 18.0302 22.9849 16.1246C23.5719 14.0524 23.6764 11.8732 23.2904 9.7543H11.9991V14.4381H18.5382C18.4075 15.1852 18.1275 15.8982 17.7148 16.5344C17.3021 17.1707 16.7654 17.7172 16.1366 18.1412C15.3382 18.6696 14.438 19.025 13.494 19.1846C12.5472 19.3607 11.5761 19.3607 10.6294 19.1846C9.66978 18.9864 8.76202 18.5903 7.96404 18.0217C6.68191 17.1141 5.71921 15.8247 5.21331 14.3376C4.699 12.8226 4.699 11.1802 5.21331 9.66514C5.57342 8.60319 6.16873 7.6363 6.9548 6.83662C7.85437 5.90469 8.99325 5.23854 10.2465 4.91126C11.4997 4.58397 12.8189 4.60821 14.0593 4.9813C15.0283 5.27862 15.9144 5.79832 16.6469 6.49895C17.3842 5.76542 18.1203 5.02999 18.855 4.29267C19.2345 3.89619 19.648 3.51867 20.0217 3.1127C18.9035 2.0722 17.591 1.26251 16.1593 0.729999C13.5522 -0.216652 10.6996 -0.242092 8.07597 0.65791Z" fill="white"/>
<path d="M8.07548 0.657856C10.6988 -0.242759 13.5515 -0.217988 16.1588 0.728047C17.5907 1.26418 18.9026 2.07776 20.0193 3.12213C19.6399 3.5281 19.2397 3.90751 18.8527 4.3021C18.1166 5.0369 17.3812 5.76916 16.6464 6.49889C15.9139 5.79827 15.0278 5.27856 14.0588 4.98125C12.8188 4.60685 11.4997 4.58121 10.2461 4.90715C8.99255 5.2331 7.85297 5.89802 6.95242 6.82898C6.16634 7.62866 5.57103 8.59555 5.21092 9.65749L1.27832 6.61272C2.68595 3.82131 5.12318 1.68611 8.07548 0.657856Z" fill="#E33629"/>
<path d="M0.23523 9.62863C0.446447 8.58102 0.797376 7.56651 1.27861 6.6123L5.21121 9.66467C4.6969 11.1797 4.6969 12.8221 5.21121 14.3371C3.90098 15.3489 2.59011 16.3657 1.27861 17.3876C0.0742656 14.9903 -0.293039 12.2589 0.23523 9.62863Z" fill="#F8BD00"/>
<path d="M11.9989 9.75195H23.2902C23.6762 11.8709 23.5717 14.05 22.9847 16.1223C22.4445 18.0278 21.3952 19.7501 19.9495 21.1039C18.6803 20.1137 17.4055 19.131 16.1364 18.1407C16.7656 17.7163 17.3026 17.1692 17.7153 16.5323C18.128 15.8953 18.4078 15.1816 18.538 14.4339H11.9989C11.997 12.8745 11.9989 11.3132 11.9989 9.75195Z" fill="#587DBD"/>
<path d="M1.27637 17.3884C2.58787 16.3766 3.89873 15.3598 5.20897 14.3379C5.71587 15.8256 6.67995 17.115 7.96349 18.022C8.76396 18.588 9.67368 18.9808 10.6345 19.1754C11.5813 19.3515 12.5524 19.3515 13.4991 19.1754C14.4431 19.0158 15.3433 18.6604 16.1417 18.132C17.4108 19.1223 18.6857 20.1049 19.9548 21.0952C18.5659 22.3581 16.8729 23.2387 15.0414 23.6505C13.0199 24.1258 10.9133 24.103 8.90254 23.5841C7.31224 23.1595 5.82679 22.411 4.53931 21.3855C3.1767 20.3034 2.06371 18.94 1.27637 17.3884Z" fill="#7EC6C8"/>
</svg>
