<svg width="14" height="14" viewBox="0 0 14 14" fill="none" xmlns="http://www.w3.org/2000/svg">
<path fill-rule="evenodd" clip-rule="evenodd" d="M7 8.55602C7 7.93717 7.24584 7.34367 7.68343 6.90608C8.12102 6.46849 8.71452 6.22266 9.33336 6.22266H12.4445C12.8571 6.22266 13.2527 6.38655 13.5445 6.67827C13.8362 6.97 14.0001 7.36567 14.0001 7.77823V9.3338C14.0001 9.74637 13.8362 10.142 13.5445 10.4338C13.2527 10.7255 12.8571 10.8894 12.4445 10.8894H9.33336C8.71452 10.8894 8.12102 10.6435 7.68343 10.206C7.24584 9.76836 7 9.17486 7 8.55602ZM9.33336 7.77823C9.12708 7.77823 8.92925 7.86018 8.78338 8.00604C8.63752 8.1519 8.55557 8.34974 8.55557 8.55602C8.55557 8.7623 8.63752 8.96013 8.78338 9.106C8.92925 9.25186 9.12708 9.3338 9.33336 9.3338H12.4445V7.77823H9.33336Z" fill="#FC1418"/>
<path fill-rule="evenodd" clip-rule="evenodd" d="M7.22797 0.227725C7.37383 0.0819129 7.57163 0 7.77787 0C7.98411 0 8.18191 0.0819129 8.32776 0.227725L10.4332 2.33319H8.23365L7.22797 1.32752C7.08216 1.18166 7.00025 0.983862 7.00025 0.777621C7.00025 0.57138 7.08216 0.373582 7.22797 0.227725ZM7.32209 2.33319L5.21662 0.227725C5.07076 0.0819129 4.87296 0 4.66672 0C4.46048 0 4.26268 0.0819129 4.11683 0.227725L2.01136 2.33319H7.32209ZM1.23357 3.11098L1.19001 3.15376C0.850672 3.2358 0.548792 3.42961 0.332943 3.70401C0.117094 3.97841 -0.000175967 4.31744 1.9819e-07 4.66656V12.4444C1.9819e-07 12.857 0.16389 13.2527 0.455617 13.5444C0.747344 13.8361 1.14301 14 1.55557 14H10.889C11.3016 14 11.6972 13.8361 11.989 13.5444C12.2807 13.2527 12.4446 12.857 12.4446 12.4444H9.33344C8.30203 12.4444 7.31287 12.0347 6.58355 11.3054C5.85423 10.5761 5.44451 9.5869 5.44451 8.55549C5.44451 7.52408 5.85423 6.53492 6.58355 5.8056C7.31287 5.07628 8.30203 4.66656 9.33344 4.66656H12.4446C12.4448 4.31744 12.3275 3.97841 12.1116 3.70401C11.8958 3.42961 11.5939 3.2358 11.2546 3.15376L11.211 3.11098H1.23357Z" fill="#FC1418"/>
</svg>
