<svg width="21" height="20" viewBox="0 0 21 20" fill="none" xmlns="http://www.w3.org/2000/svg">
<rect width="21" height="20" rx="4" fill="#FCC000"/>
<rect width="13.1688" height="13.0003" transform="translate(4 3)" fill="#FCC000"/>
<path d="M6.22389 12.1437C6.2444 12.2047 6.25278 12.2692 6.24858 12.3334C6.24438 12.3977 6.22766 12.4605 6.1994 12.5182C6.17113 12.576 6.13186 12.6276 6.08383 12.67C6.0358 12.7125 5.97995 12.745 5.91947 12.7656C5.85899 12.7863 5.79506 12.7948 5.73134 12.7905C5.66762 12.7863 5.60535 12.7694 5.54809 12.7409C5.49082 12.7124 5.43969 12.6728 5.3976 12.6244C5.35552 12.5759 5.3233 12.5196 5.3028 12.4586C5.20723 12.1736 5.13466 11.8813 5.0858 11.5846C4.95672 10.798 4.99895 9.99256 5.20953 9.22412C5.42012 8.45569 5.79402 7.7427 6.30527 7.13466C6.81653 6.52662 7.45288 6.0381 8.17013 5.70304C8.88739 5.36797 9.66837 5.19439 10.4588 5.19434C10.5109 5.1972 10.5626 5.19768 10.6147 5.19864C10.6784 5.19989 10.7413 5.21379 10.7997 5.23954C10.8581 5.2653 10.9108 5.30239 10.955 5.34872C10.9992 5.39505 11.0339 5.4497 11.0571 5.50955C11.0803 5.5694 11.0917 5.63328 11.0904 5.69754C11.0892 5.76181 11.0754 5.82519 11.0499 5.88408C11.0243 5.94297 10.9875 5.99621 10.9416 6.04077C10.8957 6.08532 10.8415 6.12031 10.7822 6.14374C10.7228 6.16718 10.6595 6.17859 10.5958 6.17734C10.5484 6.17734 10.5053 6.17495 10.4588 6.17734C9.74733 6.17672 9.04596 6.34737 8.413 6.67512C7.78004 7.00286 7.23378 7.47824 6.81961 8.06174C6.40544 8.64523 6.13533 9.32 6.03172 10.03C5.92811 10.7399 5.99399 11.4646 6.22389 12.1437Z" fill="white"/>
<path d="M11.7923 6.32336C11.7291 6.3068 11.6699 6.27774 11.6181 6.23789C11.5663 6.19805 11.5231 6.14823 11.4909 6.09139C11.4588 6.03455 11.4384 5.97184 11.4309 5.90698C11.4235 5.84212 11.4291 5.77642 11.4475 5.71378C11.4659 5.65114 11.4968 5.59282 11.5381 5.54229C11.5795 5.49176 11.6306 5.45003 11.6884 5.41959C11.7463 5.38914 11.8096 5.3706 11.8747 5.36505C11.9398 5.3595 12.0054 5.36706 12.0675 5.38728C13.4571 5.79684 14.6271 6.74089 15.3202 8.0119C16.0133 9.28291 16.1728 10.7769 15.7637 12.1653C15.6177 12.6649 15.4008 13.141 15.1195 13.579C15.085 13.633 15.0401 13.6798 14.9875 13.7165C14.9349 13.7533 14.8756 13.7793 14.8129 13.7932C14.7503 13.807 14.6855 13.8084 14.6223 13.7972C14.5591 13.7861 14.4987 13.7626 14.4446 13.7281C14.3905 13.6936 14.3437 13.6488 14.3069 13.5963C14.2701 13.5437 14.244 13.4845 14.2302 13.4219C14.2163 13.3592 14.2149 13.2945 14.2261 13.2314C14.2373 13.1682 14.2608 13.1079 14.2953 13.0539C14.6716 12.4676 14.9062 11.802 14.9807 11.1095C15.0553 10.4171 14.9676 9.71688 14.7247 9.06412C14.4818 8.41135 14.0904 7.82394 13.5812 7.34828C13.072 6.87262 12.4591 6.52175 11.7909 6.32336H11.7923Z" fill="white"/>
<path d="M10.4146 7.22168C11.2349 7.22148 12.0298 7.49892 12.664 8.00675C13.2982 8.51457 13.7324 9.22135 13.8926 10.0067C14.0528 10.792 13.9291 11.6072 13.5426 12.3135C13.1561 13.0197 12.5307 13.5733 11.773 13.8799C11.0152 14.1865 10.172 14.2271 9.38704 13.9948C8.60206 13.7625 7.92387 13.2717 7.46802 12.606C7.01217 11.9404 6.80688 11.141 6.88713 10.3441C6.96737 9.54719 7.32819 8.80212 7.90809 8.23582C8.23683 7.9139 8.62751 7.65858 9.05766 7.48454C9.48782 7.3105 9.94897 7.22117 10.4146 7.22168ZM12.2345 8.90515C11.8131 8.4946 11.259 8.23935 10.6664 8.18291C10.0739 8.12647 9.47964 8.27232 8.9849 8.59561C8.49016 8.9189 8.12554 9.39963 7.95316 9.95591C7.78078 10.5122 7.8113 11.1096 8.03953 11.6464C8.26775 12.1832 8.67955 12.6261 9.20479 12.8997C9.73002 13.1734 10.3362 13.2608 10.92 13.1471C11.5039 13.0334 12.0293 12.7256 12.4067 12.2761C12.7842 11.8267 12.9903 11.2634 12.9901 10.6822C12.9903 10.352 12.9237 10.025 12.794 9.72004C12.6644 9.41506 12.4742 9.13813 12.2345 8.90515Z" fill="white"/>
<path d="M13.4945 13.8847C13.5901 13.805 13.7137 13.7646 13.8393 13.7718C13.9648 13.7789 14.0827 13.8332 14.1682 13.9232C14.2536 14.0131 14.3001 14.1318 14.2978 14.2544C14.2955 14.377 14.2446 14.4939 14.1558 14.5808C13.5804 15.0998 12.8973 15.4923 12.1527 15.7316C11.4081 15.9709 10.6195 16.0514 9.84018 15.9678C9.06087 15.8842 8.3091 15.6384 7.63575 15.2469C6.96241 14.8555 6.38322 14.3276 5.9374 13.699C5.86693 13.5951 5.84106 13.4685 5.86535 13.3462C5.88964 13.2239 5.96216 13.1158 6.06733 13.0451C6.1725 12.9744 6.30193 12.9467 6.42783 12.9679C6.55373 12.9892 6.66605 13.0577 6.74068 13.1588C7.10736 13.6749 7.58343 14.1084 8.13672 14.4298C8.69001 14.7512 9.30763 14.9531 9.94785 15.0219C10.5881 15.0907 11.236 15.0248 11.8478 14.8286C12.4597 14.6324 13.0212 14.3105 13.4945 13.8847Z" fill="white"/>
<path d="M14.5203 13.8346C14.4176 13.7701 14.3436 13.6686 14.3136 13.5512C14.2835 13.4337 14.2997 13.3092 14.3589 13.2034C14.418 13.0975 14.5155 13.0184 14.6313 12.9823C14.747 12.9463 14.8722 12.956 14.981 13.0096L16.9437 14.1109C17.0476 14.1749 17.1228 14.2764 17.1536 14.3945C17.1844 14.5125 17.1684 14.6378 17.1089 14.7443C17.0495 14.8509 16.9512 14.9303 16.8345 14.9661C16.7179 15.0018 16.592 14.9912 16.483 14.9364L14.5203 13.8346Z" fill="white"/>
<path d="M11.0901 5.56334C11.0901 5.68947 11.0368 5.81043 10.9418 5.89962C10.8468 5.9888 10.718 6.03891 10.5836 6.03891C10.4493 6.03891 10.3205 5.9888 10.2255 5.89962C10.1305 5.81043 10.0771 5.68947 10.0771 5.56334V3.47557C10.0771 3.34944 10.1305 3.22848 10.2255 3.13929C10.3205 3.0501 10.4493 3 10.5836 3C10.718 3 10.8468 3.0501 10.9418 3.13929C11.0368 3.22848 11.0901 3.34944 11.0901 3.47557V5.56334Z" fill="white"/>
<path d="M6.15963 13.0183C6.27087 12.9587 6.40121 12.9449 6.52257 12.9799C6.64394 13.0149 6.7466 13.0959 6.80844 13.2054C6.87029 13.3149 6.88635 13.4441 6.85319 13.5653C6.82002 13.6865 6.74027 13.7898 6.63112 13.8531L4.7381 14.9135C4.68275 14.9481 4.6209 14.9711 4.55632 14.9811C4.49174 14.9912 4.42578 14.988 4.36245 14.972C4.29912 14.9559 4.23975 14.9271 4.18795 14.8875C4.13615 14.8479 4.093 14.7982 4.06113 14.7415C4.02927 14.6848 4.00935 14.6223 4.00258 14.5577C3.99582 14.4931 4.00236 14.4278 4.0218 14.3658C4.04124 14.3038 4.07318 14.2464 4.11567 14.197C4.15816 14.1476 4.21031 14.1074 4.26895 14.0787L6.1615 13.0183H6.15963Z" fill="white"/>
</svg>
