<svg width="11" height="14" viewBox="0 0 11 14" fill="none" xmlns="http://www.w3.org/2000/svg">
<path d="M1.089 4.0607C0.886975 2.73419 1.82762 1.53971 3.26456 1.10141C3.51969 1.02364 3.79501 1.04574 4.03434 1.1632C4.27368 1.28066 4.459 1.48463 4.5525 1.73351L5.01328 2.95862C5.08736 3.15569 5.10064 3.37031 5.05142 3.57494C5.0022 3.77958 4.89272 3.96491 4.73703 4.10717L3.36636 5.35921C3.29876 5.42106 3.24839 5.49928 3.22015 5.58627C3.1919 5.67325 3.18674 5.76604 3.20517 5.8556L3.21737 5.91051L3.2513 6.04834C3.28153 6.16452 3.32713 6.32822 3.39128 6.5236C3.51854 6.91173 3.72162 7.43346 4.02386 7.95466C4.32609 8.47586 4.67817 8.91205 4.95177 9.21569C5.09427 9.37378 5.24321 9.52599 5.39823 9.67194L5.44065 9.71101C5.50921 9.77148 5.59233 9.81324 5.6819 9.83221C5.77148 9.85118 5.86447 9.84672 5.9518 9.81927L7.72597 9.26321C7.92755 9.20011 8.14346 9.19841 8.34601 9.25834C8.54857 9.31828 8.72852 9.43711 8.8628 9.59959L9.70217 10.6145C10.0521 11.037 10.0108 11.658 9.60831 12.0313C8.5086 13.0521 6.99637 13.2617 5.94438 12.4189C4.65492 11.3832 3.56786 10.12 2.7375 8.69237C1.90029 7.26571 1.34099 5.69397 1.089 4.0607ZM4.31602 5.92477L5.45391 4.88554C5.7653 4.60103 5.98426 4.23037 6.0827 3.82109C6.18114 3.41182 6.15458 2.98258 6.00641 2.58845L5.54511 1.36333C5.35691 0.862791 4.98412 0.452572 4.50273 0.216297C4.02134 -0.0199787 3.46759 -0.0645223 2.95437 0.0917459C1.17012 0.635655 -0.262579 2.22883 0.0407163 4.21912C0.312727 5.98393 0.916624 7.68178 1.82072 9.22361C2.71633 10.7631 3.88877 12.1253 5.27946 13.2422C6.85691 14.5043 8.96408 14.0739 10.3316 12.8039C10.7228 12.4407 10.9603 11.9425 10.9954 11.411C11.0306 10.8794 10.8609 10.3546 10.5209 9.94336L9.68149 8.92842C9.41289 8.60335 9.05289 8.36563 8.64768 8.24575C8.24246 8.12588 7.81053 8.12933 7.4073 8.25566L5.93483 8.71719C5.86892 8.64968 5.8044 8.58084 5.7413 8.51072C5.43868 8.17729 5.17094 7.81404 4.94223 7.42659C4.71957 7.03554 4.53747 6.62293 4.39873 6.19514C4.36932 6.10559 4.34174 6.01545 4.31602 5.92477Z" fill="#A4A4A4"/>
</svg>
