
<svg width="14" height="13" viewBox="0 0 14 13" fill="none" xmlns="http://www.w3.org/2000/svg">
<path d="M2.22389 9.14368C2.2444 9.20468 2.25278 9.26915 2.24858 9.33342C2.24438 9.39769 2.22766 9.46049 2.1994 9.51825C2.17113 9.576 2.13186 9.62758 2.08383 9.67003C2.0358 9.71247 1.97995 9.74496 1.91947 9.76564C1.85899 9.78632 1.79506 9.79478 1.73134 9.79054C1.66762 9.7863 1.60535 9.76945 1.54809 9.74093C1.49082 9.71242 1.43969 9.67281 1.3976 9.62437C1.35552 9.57593 1.3233 9.5196 1.3028 9.4586C1.20723 9.17363 1.13466 8.88133 1.0858 8.58456C0.956722 7.79801 0.998945 6.99256 1.20953 6.22412C1.42012 5.45569 1.79402 4.7427 2.30527 4.13466C2.81653 3.52662 3.45288 3.0381 4.17013 2.70304C4.88739 2.36797 5.66837 2.19439 6.45883 2.19434C6.51095 2.1972 6.56259 2.19768 6.61471 2.19864C6.67843 2.19989 6.74127 2.21379 6.79966 2.23954C6.85805 2.2653 6.91084 2.30239 6.95501 2.34872C6.99919 2.39505 7.03388 2.4497 7.05711 2.50955C7.08035 2.5694 7.09166 2.63328 7.09042 2.69754C7.08917 2.76181 7.07539 2.82519 7.04986 2.88408C7.02433 2.94297 6.98755 2.99621 6.94161 3.04077C6.89568 3.08532 6.84149 3.12031 6.78215 3.14374C6.72281 3.16718 6.65947 3.17859 6.59576 3.17734C6.54838 3.17734 6.50526 3.17495 6.45883 3.17734C5.74733 3.17672 5.04596 3.34737 4.413 3.67512C3.78004 4.00286 3.23378 4.47824 2.81961 5.06174C2.40544 5.64523 2.13533 6.32 2.03172 7.02996C1.92811 7.73992 1.99399 8.46457 2.22389 9.14368Z" fill="white"/>
<path d="M7.79234 3.32336C7.72912 3.3068 7.66987 3.27774 7.6181 3.23789C7.56633 3.19805 7.52309 3.14823 7.49094 3.09139C7.45879 3.03455 7.43838 2.97184 7.43092 2.90698C7.42347 2.84212 7.42912 2.77642 7.44753 2.71378C7.46595 2.65114 7.49676 2.59282 7.53814 2.54229C7.57952 2.49176 7.63063 2.45003 7.68844 2.41959C7.74625 2.38914 7.80959 2.3706 7.87471 2.36505C7.93983 2.3595 8.0054 2.36706 8.06754 2.38728C9.45713 2.79684 10.6271 3.74089 11.3202 5.0119C12.0133 6.28291 12.1728 7.77686 11.7637 9.16533C11.6177 9.66489 11.4008 10.141 11.1195 10.579C11.085 10.633 11.0401 10.6798 10.9875 10.7165C10.9349 10.7533 10.8756 10.7793 10.8129 10.7932C10.7503 10.807 10.6855 10.8084 10.6223 10.7972C10.5591 10.7861 10.4987 10.7626 10.4446 10.7281C10.3905 10.6936 10.3437 10.6488 10.3069 10.5963C10.2701 10.5437 10.244 10.4845 10.2302 10.4219C10.2163 10.3592 10.2149 10.2945 10.2261 10.2314C10.2373 10.1682 10.2608 10.1079 10.2953 10.0539C10.6716 9.46759 10.9062 8.80197 10.9807 8.10955C11.0553 7.41713 10.9676 6.71688 10.7247 6.06412C10.4818 5.41135 10.0904 4.82394 9.58118 4.34828C9.07202 3.87262 8.45912 3.52175 7.79091 3.32336H7.79234Z" fill="white"/>
<path d="M6.4146 4.22168C7.23486 4.22148 8.02981 4.49892 8.664 5.00675C9.2982 5.51457 9.7324 6.22135 9.89261 7.00665C10.0528 7.79196 9.92914 8.6072 9.54264 9.31346C9.15614 10.0197 8.53073 10.5733 7.77298 10.8799C7.01524 11.1865 6.17203 11.2271 5.38704 10.9948C4.60206 10.7625 3.92387 10.2717 3.46802 9.60605C3.01217 8.94036 2.80688 8.14096 2.88713 7.34408C2.96737 6.54719 3.32819 5.80212 3.90809 5.23582C4.23683 4.9139 4.62751 4.65858 5.05766 4.48454C5.48782 4.3105 5.94897 4.22117 6.4146 4.22168ZM8.23452 5.90515C7.81314 5.4946 7.25897 5.23935 6.66643 5.18291C6.0739 5.12647 5.47964 5.27232 4.9849 5.59561C4.49016 5.9189 4.12554 6.39963 3.95316 6.95591C3.78078 7.5122 3.8113 8.10961 4.03953 8.64639C4.26775 9.18317 4.67955 9.62611 5.20479 9.89974C5.73002 10.1734 6.33619 10.2608 6.92004 10.1471C7.50388 10.0334 8.02928 9.72556 8.40673 9.27611C8.78418 8.82667 8.99033 8.26338 8.99006 7.6822C8.99032 7.352 8.9237 7.02501 8.79404 6.72004C8.66437 6.41506 8.47422 6.13813 8.23452 5.90515Z" fill="white"/>
<path d="M9.49446 10.8847C9.59013 10.805 9.71368 10.7646 9.83926 10.7718C9.96483 10.7789 10.0827 10.8332 10.1682 10.9232C10.2536 11.0131 10.3001 11.1318 10.2978 11.2544C10.2955 11.377 10.2446 11.4939 10.1558 11.5808C9.58041 12.0998 8.89728 12.4923 8.1527 12.7316C7.40812 12.9709 6.61948 13.0514 5.84018 12.9678C5.06087 12.8842 4.3091 12.6384 3.63575 12.2469C2.96241 11.8555 2.38322 11.3276 1.9374 10.699C1.86693 10.5951 1.84106 10.4685 1.86535 10.3462C1.88964 10.2239 1.96216 10.1158 2.06733 10.0451C2.1725 9.97437 2.30193 9.94666 2.42783 9.96792C2.55373 9.98919 2.66605 10.0577 2.74068 10.1588C3.10736 10.6749 3.58343 11.1084 4.13672 11.4298C4.69001 11.7512 5.30763 11.9531 5.94785 12.0219C6.58808 12.0907 7.236 12.0248 7.84784 11.8286C8.45969 11.6324 9.02121 11.3105 9.49446 10.8847Z" fill="white"/>
<path d="M10.5203 10.8346C10.4176 10.7701 10.3436 10.6686 10.3136 10.5512C10.2835 10.4337 10.2997 10.3092 10.3589 10.2034C10.418 10.0975 10.5155 10.0184 10.6313 9.98234C10.747 9.94629 10.8722 9.95605 10.981 10.0096L12.9437 11.1109C13.0476 11.1749 13.1228 11.2764 13.1536 11.3945C13.1844 11.5125 13.1684 11.6378 13.1089 11.7443C13.0495 11.8509 12.9512 11.9303 12.8345 11.9661C12.7179 12.0018 12.592 11.9912 12.483 11.9364L10.5203 10.8346Z" fill="white"/>
<path d="M7.09012 2.56334C7.09012 2.68947 7.03676 2.81043 6.94177 2.89962C6.84679 2.9888 6.71796 3.03891 6.58363 3.03891C6.44931 3.03891 6.32048 2.9888 6.2255 2.89962C6.13051 2.81043 6.07715 2.68947 6.07715 2.56334V0.475567C6.07715 0.349438 6.13051 0.228475 6.2255 0.139289C6.32048 0.0501034 6.44931 0 6.58363 0C6.71796 0 6.84679 0.0501034 6.94177 0.139289C7.03676 0.228475 7.09012 0.349438 7.09012 0.475567V2.56334Z" fill="white"/>
<path d="M2.15963 10.0183C2.27087 9.95869 2.40121 9.94491 2.52257 9.97992C2.64394 10.0149 2.7466 10.0959 2.80844 10.2054C2.87029 10.3149 2.88635 10.4441 2.85319 10.5653C2.82002 10.6865 2.74027 10.7898 2.63112 10.8531L0.738102 11.9135C0.682749 11.9481 0.6209 11.9711 0.556319 11.9811C0.491738 11.9912 0.425777 11.988 0.362448 11.972C0.299119 11.9559 0.239748 11.9271 0.187947 11.8875C0.136146 11.8479 0.0929991 11.7982 0.0611325 11.7415C0.0292658 11.6848 0.009346 11.6223 0.00258458 11.5577C-0.00417684 11.4931 0.00236175 11.4278 0.0218027 11.3658C0.0412437 11.3038 0.07318 11.2464 0.115669 11.197C0.158157 11.1476 0.21031 11.1074 0.268952 11.0787L2.1615 10.0183H2.15963Z" fill="white"/>
</svg>
