<svg width="12" height="15" viewBox="0 0 12 15" fill="none" xmlns="http://www.w3.org/2000/svg">
<path d="M6 11.2785C6.2125 11.2785 6.39075 11.2056 6.53475 11.0597C6.67875 10.9139 6.7505 10.7337 6.75 10.519V7.48101C6.75 7.26582 6.678 7.08532 6.534 6.93949C6.39 6.79367 6.212 6.72101 6 6.72152C5.7875 6.72152 5.60925 6.79443 5.46525 6.94025C5.32125 7.08608 5.2495 7.26633 5.25 7.48101V10.519C5.25 10.7342 5.322 10.9147 5.466 11.0605C5.61 11.2063 5.788 11.279 6 11.2785ZM6 5.20253C6.2125 5.20253 6.39075 5.12962 6.53475 4.9838C6.67875 4.83797 6.7505 4.65772 6.75 4.44304C6.75 4.22785 6.678 4.04734 6.534 3.90152C6.39 3.7557 6.212 3.68304 6 3.68354C5.7875 3.68354 5.60925 3.75646 5.46525 3.90228C5.32125 4.0481 5.2495 4.22835 5.25 4.44304C5.25 4.65823 5.322 4.83873 5.466 4.98456C5.61 5.13038 5.788 5.20304 6 5.20253ZM6 15C5.9125 15 5.83125 14.9937 5.75625 14.981C5.68125 14.9684 5.60625 14.9494 5.53125 14.9241C3.84375 14.3544 2.5 13.3005 1.5 11.7623C0.5 10.224 0 8.56911 0 6.79747V3.20886C0 2.89241 0.0907499 2.60759 0.27225 2.35443C0.45375 2.10127 0.688 1.91772 0.975 1.8038L5.475 0.0949367C5.65 0.0316456 5.825 0 6 0C6.175 0 6.35 0.0316456 6.525 0.0949367L11.025 1.8038C11.3125 1.91772 11.547 2.10127 11.7285 2.35443C11.91 2.60759 12.0005 2.89241 12 3.20886V6.79747C12 8.56962 11.5 10.2248 10.5 11.763C9.5 13.3013 8.15625 14.3549 6.46875 14.9241C6.39375 14.9494 6.31875 14.9684 6.24375 14.981C6.16875 14.9937 6.0875 15 6 15Z" fill="#FF006B"/>
</svg>
